<?xml version="1.0" encoding="UTF-8"?>
<!DOCTYPE svg PUBLIC "-//W3C//DTD SVG 1.1//EN" "http://www.w3.org/Graphics/SVG/1.1/DTD/svg11.dtd">
<!-- Creator: CorelDRAW Home & Student X8 -->
<svg xmlns="http://www.w3.org/2000/svg" xml:space="preserve" width="141px" height="200px" version="1.1" style="shape-rendering:geometricPrecision; text-rendering:geometricPrecision; image-rendering:optimizeQuality; fill-rule:evenodd; clip-rule:evenodd"
viewBox="0 0 141 199"
 xmlns:xlink="http://www.w3.org/1999/xlink">
 <defs>
  <style type="text/css">
   <![CDATA[
    .fil0 {fill:#2B2A29}
   ]]>
  </style>
 </defs>
 <g id="Warstwa_x0020_1">
  <metadata id="CorelCorpID_0Corel-Layer"/>
  <g id="_109925416">
   <path class="fil0" d="M112 100c0,-6 -7,-11 -18,-14 3,-11 2,-19 -3,-22 -1,-1 -2,-1 -4,-1l0 4c1,0 2,0 2,0 2,1 3,6 3,13 -1,1 -1,3 -1,5 -4,-1 -7,-2 -11,-2 -2,-3 -5,-6 -7,-8 6,-6 11,-8 14,-8l0 -4c-4,0 -10,3 -17,9 -6,-6 -12,-9 -16,-9l0 4c3,0 8,2 14,8 -3,2 -5,5 -7,8 -4,0 -7,1 -11,2 0,-2 0,-4 -1,-5 0,-7 1,-12 3,-13 0,0 1,0 2,0l0 -4c-2,0 -3,0 -4,1 -5,3 -6,11 -3,22 -11,3 -18,8 -18,14 0,5 7,10 18,13 -3,11 -2,19 3,22 1,1 2,1 4,1 4,0 10,-3 17,-9 6,6 12,9 16,9 2,0 3,0 4,-1 5,-3 6,-11 3,-22 11,-3 18,-8 18,-13l0 0zm-22 -12c-1,3 -2,5 -2,7 -1,-1 -2,-3 -3,-4 0,-1 -1,-3 -2,-4 2,0 5,1 7,1l0 0zm-8 18c-1,2 -3,5 -4,7 -2,0 -5,0 -7,0 -3,0 -6,0 -8,0 -1,-2 -3,-5 -4,-7 -1,-2 -3,-4 -4,-6 1,-3 3,-5 4,-7 1,-2 3,-5 4,-7 2,0 5,0 8,0 2,0 5,0 7,0 1,2 3,5 4,7 1,2 3,4 4,6 -1,3 -3,5 -4,7zm6 -2c0,2 1,4 2,7 -2,0 -5,1 -7,1 1,-1 2,-3 2,-4 1,-1 2,-3 3,-4zm-17 18c-2,-2 -4,-4 -5,-5 1,0 3,0 4,0 2,0 4,0 5,0 -1,1 -3,3 -4,5zm-13 -10c-2,0 -5,-1 -7,-1 1,-2 2,-5 2,-7 1,1 2,3 3,4 0,1 1,3 2,4l0 0zm12 -35c2,2 4,4 5,6 -1,-1 -3,-1 -4,-1 -2,0 -4,0 -5,1 1,-2 3,-4 4,-6zm-12 10c-1,1 -2,3 -2,4 -1,1 -2,3 -3,4 0,-2 -1,-4 -2,-7 2,0 5,-1 7,-1l0 0zm-15 21c-6,-3 -10,-6 -10,-8 0,-3 4,-6 10,-9 1,-1 3,-1 5,-2 1,4 2,7 3,11 -1,3 -2,6 -3,10 -2,-1 -4,-1 -5,-2l0 0zm9 24c-2,-1 -3,-6 -3,-13 1,-1 1,-3 1,-5 4,1 7,2 11,2 2,3 5,6 7,9 -6,5 -11,7 -14,7 -1,0 -2,0 -2,0zm40 -13c0,7 -1,12 -3,13 0,0 -1,0 -2,0 -3,0 -8,-2 -14,-8 3,-2 5,-5 7,-8 4,0 7,-1 11,-2 0,2 0,4 1,5zm6 -11c-1,1 -3,1 -5,2 -1,-4 -2,-7 -3,-11 1,-3 2,-6 3,-10 2,1 4,1 5,2 6,3 10,6 10,9 0,2 -4,5 -10,8l0 0zm-44 -45z"/>
   <circle class="fil0" cx="70" cy="100" r="8"/>
  </g>
 </g>
</svg>
